<?xml version="1.0" encoding="UTF-8"?>
<svg xmlns="http://www.w3.org/2000/svg" xmlns:xlink="http://www.w3.org/1999/xlink" width="50px" height="50px" viewBox="0 0 50 50" version="1.1">
<g id="surface1">
<path style=" stroke:none;fill-rule:nonzero;fill:rgb(0%,0%,0%);fill-opacity:1;" d="M 25 0 C 38.808594 0 50 11.191406 50 25 C 50 38.808594 38.808594 50 25 50 C 11.191406 50 0 38.808594 0 25 C 0 11.191406 11.191406 0 25 0 Z M 25 45.3125 C 36.21875 45.3125 45.3125 36.21875 45.3125 25 C 45.3125 13.78125 36.21875 4.6875 25 4.6875 C 13.78125 4.6875 4.6875 13.78125 4.6875 25 C 4.6875 36.21875 13.78125 45.3125 25 45.3125 Z M 10.289062 22.789062 L 22.789062 10.289062 C 24.011719 9.070312 25.988281 9.070312 27.210938 10.289062 C 28.429688 11.511719 28.429688 13.488281 27.210938 14.710938 L 20.042969 21.875 L 37.5 21.875 C 39.226562 21.875 40.625 23.273438 40.625 25 C 40.625 26.726562 39.226562 28.125 37.5 28.125 L 20.042969 28.125 L 27.210938 35.289062 C 28.429688 36.511719 28.429688 38.488281 27.210938 39.710938 C 26.597656 40.320312 25.800781 40.625 25 40.625 C 24.199219 40.625 23.402344 40.320312 22.789062 39.710938 L 10.289062 27.210938 C 9.070312 25.988281 9.070312 24.011719 10.289062 22.789062 Z M 10.289062 22.789062 "/>
</g>
</svg>
